<?xml version="1.0" encoding="utf-8"?>
<!-- Generator: Adobe Illustrator 17.0.0, SVG Export Plug-In . SVG Version: 6.00 Build 0)  -->
<!DOCTYPE svg PUBLIC "-//W3C//DTD SVG 1.1//EN" "http://www.w3.org/Graphics/SVG/1.1/DTD/svg11.dtd">
<svg version="1.1" id="Layer_1" xmlns="http://www.w3.org/2000/svg" xmlns:xlink="http://www.w3.org/1999/xlink" x="0px" y="0px"
	 width="85.04px" height="85.04px" viewBox="0 0 85.04 85.04" enable-background="new 0 0 85.04 85.04" xml:space="preserve">
<path fill="none" stroke="#2F80ED" stroke-width="2.3904" stroke-linecap="round" stroke-linejoin="round" stroke-miterlimit="10" d="
	M46.125,67.525H16.504c-1.565,0-2.835-1.269-2.835-2.835V22.735c0-1.566,1.269-2.835,2.835-2.835h12.478"/>
<path fill="none" stroke="#2F80ED" stroke-width="2.3904" stroke-linecap="round" stroke-linejoin="round" stroke-miterlimit="10" d="
	M55.277,19.9h8.183c1.566,0,2.835,1.269,2.835,2.835V46.65"/>
<circle fill="none" stroke="#2F80ED" stroke-width="2.3904" stroke-linecap="round" stroke-linejoin="round" stroke-miterlimit="10" cx="59.667" cy="60.591" r="11.667"/>
<line fill="none" stroke="#2F80ED" stroke-width="2.3904" stroke-linecap="round" stroke-linejoin="round" stroke-miterlimit="10" x1="13.669" y1="30.65" x2="66.294" y2="30.65"/>
<g>
	
		<line fill="none" stroke="#2F80ED" stroke-width="2.3904" stroke-linecap="round" stroke-linejoin="round" stroke-miterlimit="10" x1="28.982" y1="13.9" x2="28.982" y2="25.9"/>
	
		<line fill="none" stroke="#2F80ED" stroke-width="2.3904" stroke-linecap="round" stroke-linejoin="round" stroke-miterlimit="10" x1="50.982" y1="13.9" x2="50.982" y2="25.9"/>
</g>
<line fill="none" stroke="#2F80ED" stroke-width="2.3904" stroke-linecap="round" stroke-linejoin="round" stroke-miterlimit="10" x1="50.982" y1="19.9" x2="33.932" y2="19.9"/>
<circle fill="none" stroke="#2F80ED" stroke-width="2.3904" stroke-linecap="round" stroke-linejoin="round" stroke-miterlimit="10" cx="59.667" cy="60.591" r="11.667"/>
<circle fill="#2F80ED" cx="59.667" cy="60.591" r="1.674"/>
<line fill="none" stroke="#2F80ED" stroke-width="2.3904" stroke-linecap="round" stroke-linejoin="round" stroke-miterlimit="10" x1="59.667" y1="60.591" x2="67.125" y2="60.591"/>
<line fill="none" stroke="#2F80ED" stroke-width="2.3904" stroke-linecap="round" stroke-linejoin="round" stroke-miterlimit="10" x1="59.667" y1="60.591" x2="53.93" y2="56.312"/>
<circle fill="#2F80ED" cx="25" cy="48.549" r="2.75"/>
<circle fill="#2F80ED" cx="25" cy="57.841" r="2.75"/>
<circle fill="#2F80ED" cx="35.25" cy="48.549" r="2.75"/>
<circle fill="#2F80ED" cx="35.25" cy="39.257" r="2.75"/>
<circle fill="#2F80ED" cx="35.25" cy="57.841" r="2.75"/>
<circle fill="#2F80ED" cx="45.5" cy="48.549" r="2.75"/>
<circle fill="#2F80ED" cx="45.5" cy="39.257" r="2.75"/>
<circle fill="#2F80ED" cx="55.75" cy="39.257" r="2.75"/>
</svg>
