<?xml version="1.0" encoding="utf-8"?>
<!-- Generator: Adobe Illustrator 17.0.0, SVG Export Plug-In . SVG Version: 6.00 Build 0)  -->
<!DOCTYPE svg PUBLIC "-//W3C//DTD SVG 1.1//EN" "http://www.w3.org/Graphics/SVG/1.1/DTD/svg11.dtd">
<svg version="1.1" id="Layer_1" xmlns="http://www.w3.org/2000/svg" xmlns:xlink="http://www.w3.org/1999/xlink" x="0px" y="0px"
	 width="56.69px" height="56.69px" viewBox="0 0 56.69 56.69" enable-background="new 0 0 56.69 56.69" xml:space="preserve">
<g>
	
		<path fill="none" stroke="#2F80ED" stroke-width="1.397" stroke-linecap="round" stroke-linejoin="round" stroke-miterlimit="10" d="
		M26.27,28.79c0-7.592-3.646-11.239-11.239-11.239c7.592,0,11.239-3.646,11.239-11.239c0,7.592,3.648,11.239,11.24,11.239
		C29.918,17.552,26.27,21.2,26.27,28.79z"/>
	
		<path fill="none" stroke="#2F80ED" stroke-width="1.4957" stroke-linecap="round" stroke-linejoin="round" stroke-miterlimit="10" d="
		M31.962,40.554c0-4.381-2.104-6.484-6.484-6.484c4.381,0,6.484-2.104,6.484-6.485c0,4.381,2.104,6.485,6.484,6.485
		C34.066,34.069,31.962,36.173,31.962,40.554z"/>
	
		<path fill="none" stroke="#2F80ED" stroke-width="1.7543" stroke-linecap="round" stroke-linejoin="round" stroke-miterlimit="10" d="
		M45.038,35.168c0-7.069-3.395-10.464-10.464-10.464c7.069,0,10.464-3.395,10.464-10.464c0,7.069,3.395,10.464,10.464,10.464
		C48.433,24.704,45.038,28.099,45.038,35.168z"/>
	
		<path fill="none" stroke="#2F80ED" stroke-width="1.889" stroke-linecap="round" stroke-linejoin="round" stroke-miterlimit="10" d="
		M40.104,39.286c0.004,3.726-0.811,7.511-2.538,11.092"/>
	
		<path fill="none" stroke="#2F80ED" stroke-width="1.889" stroke-linecap="round" stroke-linejoin="round" stroke-miterlimit="10" d="
		M7.69,14.748c2.013-0.567,4.1-0.888,6.21-0.948"/>
	
		<path fill="none" stroke="#2F80ED" stroke-width="1.889" stroke-linecap="round" stroke-linejoin="round" stroke-miterlimit="10" d="
		M28.803,40.092c0.037,2.197-0.425,4.436-1.443,6.551"/>
	
		<path fill="none" stroke="#2F80ED" stroke-width="1.889" stroke-linecap="round" stroke-linejoin="round" stroke-miterlimit="10" d="
		M1.188,34.019c3.486-7.227,12.17-10.259,19.397-6.772"/>
</g>
</svg>
