<?xml version="1.0" encoding="utf-8"?>
<!-- Generator: Adobe Illustrator 17.0.0, SVG Export Plug-In . SVG Version: 6.00 Build 0)  -->
<!DOCTYPE svg PUBLIC "-//W3C//DTD SVG 1.1//EN" "http://www.w3.org/Graphics/SVG/1.1/DTD/svg11.dtd">
<svg version="1.1" id="Layer_1" xmlns="http://www.w3.org/2000/svg" xmlns:xlink="http://www.w3.org/1999/xlink" x="0px" y="0px"
	 width="56.69px" height="56.69px" viewBox="0 0 56.69 56.69" enable-background="new 0 0 56.69 56.69" xml:space="preserve">
<g>
	<polygon fill="none" stroke="#2F80ED" stroke-width="1.3193" stroke-linecap="round" stroke-miterlimit="10" points="
		31.004,36.153 32.231,49.833 55.004,49.833 46.302,36.153 	"/>
	<polygon fill="none" stroke="#2F80ED" stroke-width="1.3193" stroke-linecap="round" stroke-miterlimit="10" points="
		27.207,36.153 10.68,36.153 1.978,49.833 26.579,49.833 	"/>
	<polyline fill="none" stroke="#2F80ED" stroke-width="1.3193" stroke-linecap="round" stroke-miterlimit="10" points="
		15.942,27.883 12.168,33.817 27.314,33.817 27.586,27.883 	"/>
	
		<path fill="none" stroke="#2F80ED" stroke-width="1.3193" stroke-linecap="round" stroke-linejoin="round" stroke-miterlimit="10" d="
		M21.763,27.709c0-7.17-3.445-10.615-10.615-10.615c7.17,0,10.615-3.445,10.615-10.615c0,7.17,3.445,10.615,10.615,10.615
		C25.207,17.094,21.763,20.539,21.763,27.709z"/>
	<polyline fill="none" stroke="#2F80ED" stroke-width="1.3193" stroke-linecap="round" stroke-miterlimit="10" points="
		30.261,27.883 30.793,33.817 44.814,33.817 41.04,27.883 40.983,27.883 	"/>
	
		<path fill="none" stroke="#2F80ED" stroke-width="1.3193" stroke-linecap="round" stroke-linejoin="round" stroke-miterlimit="10" d="
		M37.656,30.611c0-5.315-2.554-7.869-7.869-7.869c5.315,0,7.869-2.554,7.869-7.869c0,5.315,2.554,7.869,7.869,7.869
		C40.21,22.743,37.656,25.296,37.656,30.611z"/>
</g>
</svg>
