<?xml version="1.0" encoding="utf-8"?>
<!-- Generator: Adobe Illustrator 17.0.0, SVG Export Plug-In . SVG Version: 6.00 Build 0)  -->
<!DOCTYPE svg PUBLIC "-//W3C//DTD SVG 1.1//EN" "http://www.w3.org/Graphics/SVG/1.1/DTD/svg11.dtd">
<svg version="1.1" id="Layer_1" xmlns="http://www.w3.org/2000/svg" xmlns:xlink="http://www.w3.org/1999/xlink" x="0px" y="0px"
	 width="56.69px" height="56.69px" viewBox="0 0 56.69 56.69" enable-background="new 0 0 56.69 56.69" xml:space="preserve">
<g>
	<path fill="none" stroke="#2F80ED" stroke-linecap="round" stroke-miterlimit="10" d="M48.378,27.406
		c-0.699-0.526-1.453-1.112-2.272-1.729v-3.007c0-0.903-0.665-1.635-1.486-1.635h-0.619c-0.821,0-1.486,0.732-1.486,1.635v0.476
		c-5.347-3.457-13.01-6.855-24.881-6.361c-1.423-0.035-2.726,0.365-3.842,1.161c-3.797-4.237-9.785-4.425-10.049-4.431
		c-0.918-0.016-1.682,0.783-1.703,1.797c-0.021,1.014,0.71,1.855,1.631,1.88c0.052,0.001,5.017,0.177,7.833,3.435
		c-0.961,1.784-1.533,4.159-1.571,7.064c-0.093,7.071,0,10.954,0,10.954h44.203C54.135,38.644,53.671,31.39,48.378,27.406z
		 M39.267,30.062c-0.154-0.722-0.742-1.26-1.445-1.26h-6.531c-0.703,0-1.291,0.538-1.445,1.26H18.82c0,0-0.049-1.732,0-4.887
		c0.049-3.155,1.757-4.913,4.048-4.865c8.977-0.317,13.376,2.961,16.157,4.739c2.782,1.778,3.026,5.014,3.026,5.014H39.267z"/>
	<path fill="none" stroke="#2F80ED" stroke-linecap="round" stroke-miterlimit="10" d="M54.651,42.307L54.651,42.307
		c0,0.48-0.353,0.868-0.789,0.868H10.497c-0.436,0-0.789-0.389-0.789-0.868l0,0"/>
</g>
</svg>
