<?xml version="1.0" encoding="utf-8"?>
<!-- Generator: Adobe Illustrator 17.0.0, SVG Export Plug-In . SVG Version: 6.00 Build 0)  -->
<!DOCTYPE svg PUBLIC "-//W3C//DTD SVG 1.1//EN" "http://www.w3.org/Graphics/SVG/1.1/DTD/svg11.dtd">
<svg version="1.1" id="Layer_1" xmlns="http://www.w3.org/2000/svg" xmlns:xlink="http://www.w3.org/1999/xlink" x="0px" y="0px"
	 width="56.69px" height="56.69px" viewBox="0 0 56.69 56.69" enable-background="new 0 0 56.69 56.69" xml:space="preserve">
<polyline fill="none" stroke="#2F80ED" stroke-width="1.5035" stroke-linecap="round" stroke-miterlimit="10" points="
	24.751,17.866 24.751,10.244 2.95,10.244 2.95,32.044 17.891,32.044 "/>
<polyline fill="none" stroke="#2F80ED" stroke-width="1.5035" stroke-linecap="round" stroke-miterlimit="10" points="
	24.751,17.866 24.751,10.244 27.944,10.244 "/>
<polyline fill="none" stroke="#2F80ED" stroke-width="1.5035" stroke-linecap="round" stroke-miterlimit="10" points="46.552,27.61 
	46.552,32.044 35.651,32.044 "/>
<rect x="2.95" y="32.044" fill="none" stroke="#2F80ED" stroke-width="1.5035" stroke-linecap="round" stroke-miterlimit="10" width="21.801" height="21.801"/>
<path fill="none" stroke="#2F80ED" stroke-width="1.5035" stroke-linecap="round" stroke-linejoin="round" stroke-miterlimit="10" d="
	M43.337,25.533c0-8.172-3.926-12.097-12.097-12.097c8.172,0,12.097-3.926,12.097-12.097c0,8.172,3.926,12.097,12.097,12.097
	C47.261,13.437,43.337,17.363,43.337,25.533z"/>
<path fill="none" stroke="#2F80ED" stroke-width="1.5035" stroke-linecap="round" stroke-linejoin="round" stroke-miterlimit="10" d="
	M29.392,34.501c0-6.058-2.911-8.968-8.968-8.968c6.058,0,8.968-2.909,8.968-8.968c0,6.058,2.911,8.968,8.968,8.968
	C32.303,25.533,29.392,28.443,29.392,34.501z"/>
<polyline fill="none" stroke="#2F80ED" stroke-width="1.5035" stroke-linecap="round" stroke-miterlimit="10" points="
	24.751,35.878 24.751,53.845 46.552,53.845 46.552,32.044 35.651,32.044 "/>
</svg>
