<?xml version="1.0" encoding="utf-8"?>
<!-- Generator: Adobe Illustrator 17.0.0, SVG Export Plug-In . SVG Version: 6.00 Build 0)  -->
<!DOCTYPE svg PUBLIC "-//W3C//DTD SVG 1.1//EN" "http://www.w3.org/Graphics/SVG/1.1/DTD/svg11.dtd">
<svg version="1.1" id="Layer_1" xmlns="http://www.w3.org/2000/svg" xmlns:xlink="http://www.w3.org/1999/xlink" x="0px" y="0px"
	 width="56.69px" height="56.69px" viewBox="0 0 56.69 56.69" enable-background="new 0 0 56.69 56.69" xml:space="preserve">
<g>
	<g>
		
			<line fill="none" stroke="#2F80ED" stroke-width="1.6039" stroke-linecap="round" stroke-miterlimit="10" x1="13.207" y1="12.141" x2="14.885" y2="35.231"/>
		<path fill="none" stroke="#2F80ED" stroke-width="1.6039" stroke-linecap="round" stroke-miterlimit="10" d="M28.796,51.47h19.148
			l3.408-46.915c0-1.772-1.436-3.208-3.208-3.208H15.865c-1.771,0-3.208,1.436-3.208,3.208l0.3,4.137"/>
		
			<circle fill="none" stroke="#2F80ED" stroke-width="1.7175" stroke-linecap="round" stroke-miterlimit="10" cx="16.6" cy="47.255" r="8.087"/>
		
			<line fill="none" stroke="#2F80ED" stroke-width="1.6039" stroke-linecap="round" stroke-miterlimit="10" x1="50.827" y1="11.765" x2="5.338" y2="11.765"/>
	</g>
	
		<path fill="none" stroke="#2F80ED" stroke-width="1.6039" stroke-linecap="round" stroke-linejoin="round" stroke-miterlimit="10" d="
		M24.749,24.194l2.01-2.545c0,0,1.731-2.667,4.964-2.667s3.896,1.341,3.896,1.341l1.504,1.925l2.136-0.959
		c0,0-0.273,3.614-2.379,4.762c-2.04,1.113-5.764-0.703-5.764-0.703"/>
	
		<path fill="none" stroke="#2F80ED" stroke-width="1.6039" stroke-linecap="round" stroke-linejoin="round" stroke-miterlimit="10" d="
		M40.666,26.144l1.051,3.068c0,0,1.306,2.9-0.444,5.619c-1.75,2.719-3.237,2.55-3.237,2.55l-2.432,0.223l-0.35,2.316
		c0,0-2.89-2.186-2.715-4.578c0.168-2.318,3.71-4.467,3.71-4.467"/>
	
		<path fill="none" stroke="#2F80ED" stroke-width="1.6039" stroke-linecap="round" stroke-linejoin="round" stroke-miterlimit="10" d="
		M30.592,37.951l-3.242-0.095c0,0-3.174,0.204-5.104-2.391c-1.93-2.594-1.249-3.926-1.249-3.926l0.646-2.355l-2.045-1.142
		c0,0,3.062-1.938,5.24-0.933c2.111,0.974,2.877,5.044,2.877,5.044"/>
</g>
</svg>
